<svg width="50" height="50" xmlns="http://www.w3.org/2000/svg" viewBox="0 0 64 64"><g id="_13-Globe" data-name="13-Globe"><circle cx="45" cy="9" r="2" style="fill:#96272e"/><path d="M34,51v4H30V50.91c.66.06,1.33.09,2,.09Z" style="fill:#8394b2"/><path d="M30,50.91A24.995,24.995,0,0,1,32,1h3V5H32a21,21,0,0,0,0,42h3v4H32C31.33,51,30.66,50.97,30,50.91Z" style="fill:#c1cfe8"/><path d="M46,59h2a2.006,2.006,0,0,1,2,2v2H14V61a2.006,2.006,0,0,1,2-2H46Z" style="fill:#c1cfe8"/><polygon points="46 55 46 59 18 59 18 55 30 55 34 55 46 55" style="fill:#4989f4"/><path d="M28,31a2.006,2.006,0,0,1,2,2,2.015,2.015,0,0,1-2,2h-.5A1.5,1.5,0,0,0,26,36.5,1.5,1.5,0,0,1,24.5,38H20l-.02.02A17.072,17.072,0,0,1,15.74,31h5.21a2.907,2.907,0,0,1,.85,1.93,1.208,1.208,0,0,0,2.4,0A2.907,2.907,0,0,1,25.05,31Z" style="fill:#01c25a"/><path d="M30,17a2.006,2.006,0,0,1,2,2,2.015,2.015,0,0,1-2,2H15.74a17.072,17.072,0,0,1,4.24-7.02L20,14h6.5A1.5,1.5,0,0,1,28,15.5,1.5,1.5,0,0,0,29.5,17Z" style="fill:#01c25a"/><path d="M48.52,22H40a2.006,2.006,0,0,1-2-2,2.015,2.015,0,0,1,2-2h3.37A1.8,1.8,0,0,0,45,19a1.772,1.772,0,0,0,1.77-1.42A16.514,16.514,0,0,1,48.52,22Z" style="fill:#01c25a"/><path d="M40,26h9a16.927,16.927,0,0,1-4.98,12.02L44,38H35a2.015,2.015,0,0,1-2-2,2.006,2.006,0,0,1,2-2h6a2.015,2.015,0,0,0,2-2,2.006,2.006,0,0,0-2-2H40a2.015,2.015,0,0,1-2-2A2.006,2.006,0,0,1,40,26Z" style="fill:#01c25a"/><path d="M15.74,21H30a2.015,2.015,0,0,0,2-2,2.006,2.006,0,0,0-2-2h-.5A1.5,1.5,0,0,1,28,15.5,1.5,1.5,0,0,0,26.5,14H20l-.02-.02a17,17,0,0,1,19.41-3.29c1.04,2.53,3.81,3.81,3.81,6.6a1.58,1.58,0,0,0,.17.71H40a2.015,2.015,0,0,0-2,2,2.006,2.006,0,0,0,2,2h8.52A16.472,16.472,0,0,1,49,26H40a2.006,2.006,0,0,0-2,2,2.015,2.015,0,0,0,2,2h1a2.006,2.006,0,0,1,2,2,2.015,2.015,0,0,1-2,2H35a2.006,2.006,0,0,0-2,2,2.015,2.015,0,0,0,2,2h9l.02.02a17,17,0,0,1-24.04,0L20,38h4.5A1.5,1.5,0,0,0,26,36.5,1.5,1.5,0,0,1,27.5,35H28a2.015,2.015,0,0,0,2-2,2.006,2.006,0,0,0-2-2H25.05c.82-.97,1.95-1.84,1.95-3.43A3.8,3.8,0,0,0,23,24a3.8,3.8,0,0,0-4,3.57c0,1.59,1.13,2.46,1.95,3.43H15.74a17.262,17.262,0,0,1,0-10Z" style="fill:#4989f4"/><path d="M43.37,18a1.58,1.58,0,0,1-.17-.71c0-2.79-2.77-4.07-3.81-6.6A5.1,5.1,0,0,1,39,8.71a6.007,6.007,0,0,1,12,0c0,4-4.2,5.15-4.2,8.58a1.358,1.358,0,0,1-.03.29A1.772,1.772,0,0,1,45,19,1.8,1.8,0,0,1,43.37,18ZM47,9a2,2,0,1,0-2,2A2.006,2.006,0,0,0,47,9Z" style="fill:#e63b47"/><path d="M20.95,31c-.82-.97-1.95-1.84-1.95-3.43A3.8,3.8,0,0,1,23,24a3.8,3.8,0,0,1,4,3.57c0,1.59-1.13,2.46-1.95,3.43a2.907,2.907,0,0,0-.85,1.93,1.208,1.208,0,0,1-2.4,0A2.907,2.907,0,0,0,20.95,31Z" style="fill:#e63b47"/><path d="M18,55v4H46V57H23a2,2,0,0,1-2-2H18Z" style="fill:#3f76d4"/><path d="M48,61H18a1,1,0,0,1,0-2H16a2.006,2.006,0,0,0-2,2v2H50V61a1.973,1.973,0,0,0-.278-1A1.993,1.993,0,0,1,48,61Z" style="fill:#8394b2"/><path d="M14,42.318a1.994,1.994,0,0,1-1.566-.754,25,25,0,0,1,0-31.129,2,2,0,0,1,3.129,2.492,21,21,0,0,0,0,26.145A2,2,0,0,1,14,42.318Z" style="fill:#8394b2"/><path d="M32,51c-.67,0-1.34-.03-2-.09V55h1V53a1,1,0,0,1,1-1h2V51Z" style="fill:#5c6979"/><path d="M45,6a3,3,0,1,0,3,3A3,3,0,0,0,45,6Zm0,5a2,2,0,1,1,2-2A2.006,2.006,0,0,1,45,11Z" style="fill:#b32e37"/><circle cx="23" cy="27" r="1" style="fill:#96272e"/><path d="M32,43c-.338,0-.667-.031-1-.05v4c.334.015.662.05,1,.05h1V42.95C32.667,42.969,32.338,43,32,43Z" style="fill:#5c6979"/><path d="M31,5.05v4c.333-.019.662-.05,1-.05s.667.037,1,.057V5H32C31.662,5,31.334,5.035,31,5.05Z" style="fill:#5c6979"/><path d="M24.5,38A1.5,1.5,0,0,0,26,36.5,1.5,1.5,0,0,1,27.5,35H28a1.951,1.951,0,0,0,1.243-.449A17.058,17.058,0,0,1,25.051,31h0a2.907,2.907,0,0,0-.85,1.93,1.208,1.208,0,0,1-2.4,0A2.907,2.907,0,0,0,20.95,31H15.74a17.072,17.072,0,0,0,4.24,7.02L20,38Z" style="fill:#019144"/><path d="M21,20a16.926,16.926,0,0,1,1.11-6H20l-.02-.02A17.072,17.072,0,0,0,15.74,21h5.31C21.031,20.667,21,20.338,21,20Z" style="fill:#019144"/><path d="M33.026,36.257A2,2,0,0,0,35,38h9l.02.02a17.074,17.074,0,0,0,2.609-3.392,16.931,16.931,0,0,1-13.6,1.629Z" style="fill:#019144"/><path d="M35,38a2,2,0,0,1-1.974-1.743,16.883,16.883,0,0,1-3.783-1.706A1.951,1.951,0,0,1,28,35h-.5A1.5,1.5,0,0,0,26,36.5,1.5,1.5,0,0,1,24.5,38H20l-.02.02a17,17,0,0,0,24.04,0L44,38Z" style="fill:#335fab"/><path d="M22.11,14a16.775,16.775,0,0,1,1.262-2.629A17.074,17.074,0,0,0,19.98,13.98L20,14Z" style="fill:#335fab"/><path d="M19,27.57a3.6,3.6,0,0,1,2.557-3.321A17.037,17.037,0,0,1,21.05,21H15.74a17.262,17.262,0,0,0,0,10h5.21C20.13,30.03,19,29.16,19,27.57Z" style="fill:#335fab"/><path d="M41.37,20A1.8,1.8,0,0,0,43,21a1.772,1.772,0,0,0,1.77-1.42,1.358,1.358,0,0,0,.03-.29c0-.109.016-.21.024-.315A1.782,1.782,0,0,1,43.37,18H40.981a3.93,3.93,0,0,1,.219,1.29A1.58,1.58,0,0,0,41.37,20Z" style="fill:#019144"/><path d="M37.39,12.69c.865,2.1,2.922,3.347,3.591,5.31H43.37a1.58,1.58,0,0,1-.17-.71c0-2.79-2.77-4.07-3.81-6.6A16.5,16.5,0,0,0,37.084,9.8,5.4,5.4,0,0,0,37,10.71,5.1,5.1,0,0,0,37.39,12.69Z" style="fill:#335fab"/><path d="M21.8,32.93A2.907,2.907,0,0,0,20.95,31H18.355a11.32,11.32,0,0,0,1.595,2,2.907,2.907,0,0,1,.85,1.93,1.208,1.208,0,0,0,2.4,0,2.345,2.345,0,0,1,.231-1.008A1.3,1.3,0,0,1,23,34,1.143,1.143,0,0,1,21.8,32.93Z" style="fill:#017336"/><path d="M19,27.57a3.093,3.093,0,0,1,.033-.374A3.34,3.34,0,0,0,18,29.57,3.049,3.049,0,0,0,18.355,31H20.95C20.13,30.03,19,29.16,19,27.57Z" style="fill:#1f3b6e"/></g></svg>